<svg xmlns="http://www.w3.org/2000/svg" viewBox="0 0 512 512"><defs><style>.cls-1{fill:#1daa99;}.cls-2,.cls-4,.cls-6{fill:#fc7572;}.cls-3,.cls-7{fill:#f44545;}.cls-4,.cls-5,.cls-6{stroke:#f44545;}.cls-4,.cls-5,.cls-7,.cls-8{stroke-miterlimit:10;}.cls-4,.cls-7{stroke-width:2px;}.cls-5,.cls-8{fill:none;stroke-width:3px;}.cls-6{stroke-miterlimit:10;stroke-width:2px;}.cls-7,.cls-8{stroke:#fc7572;}</style></defs><title>Recurso 41</title><g id="Capa_2" data-name="Capa 2"><g id="Capa_1-2" data-name="Capa 1"><ellipse class="cls-1" cx="50.91" cy="50.89" rx="50.91" ry="50.89"/><path class="cls-2" d="M36.15,25l-1.08,0a1.51,1.51,0,0,0-1.56,1.45l-.32,8.54a1.51,1.51,0,0,0,1.45,1.56l1.08,0a1.51,1.51,0,0,0,1.56-1.45l.32-8.54A1.52,1.52,0,0,0,36.15,25Z"/><path class="cls-2" d="M71.25,25.1l-1-.25A1.51,1.51,0,0,0,68.38,26l-2,8.31a1.51,1.51,0,0,0,1.11,1.82l1,.25a1.51,1.51,0,0,0,1.82-1.11l2-8.31A1.51,1.51,0,0,0,71.25,25.1Z"/><path class="cls-3" d="M36.65,24.9l-1-.44a1.51,1.51,0,0,0-2,.76L20,55.81a1.51,1.51,0,0,0,.76,2l1,.44a1.51,1.51,0,0,0,2-.76l13.7-30.59A1.51,1.51,0,0,0,36.65,24.9Z"/><path class="cls-3" d="M69.29,25l1-.25a1.52,1.52,0,0,1,1.82,1.11l7.48,31a1.52,1.52,0,0,1-1.11,1.82l-1,.25a1.52,1.52,0,0,1-1.82-1.11l-7.48-31A1.52,1.52,0,0,1,69.29,25Z"/><path class="cls-4" d="M21.12,59.47C20.8,53.08,26,47.62,32.76,47.28a12.31,12.31,0,0,1,11.33,6,11.19,11.19,0,0,1,1.25,3.26,10.91,10.91,0,0,1,.22,1.73c.32,6.39-4.89,11.85-11.64,12.19S21.44,65.87,21.12,59.47Z"/><path class="cls-5" d="M54.51,56.35s-3.82-5.67-9.88-.82"/><ellipse class="cls-6" cx="66.24" cy="58.41" rx="12.23" ry="11.59" transform="translate(-2.83 3.37) rotate(-2.85)"/><path class="cls-7" d="M20,62.24c-.33-6.5,5.06-12.05,12-12.4a12.74,12.74,0,0,1,11.7,6.07A11,11,0,0,1,45,59.22,11.32,11.32,0,0,1,45.24,61c.33,6.5-5.06,12-12,12.4S20.32,68.73,20,62.24Z"/><path class="cls-8" d="M54.21,58.07s-4.59-5.07-9.89.59"/><path class="cls-7" d="M54.09,61.42c-.33-6.5,5.06-12.05,12-12.4a12.74,12.74,0,0,1,11.7,6.07,11,11,0,0,1,1.29,3.31,11.32,11.32,0,0,1,.23,1.75c.33,6.5-5.06,12.05-12,12.4S54.41,67.92,54.09,61.42Z"/></g></g></svg>